<?xml version="1.0" encoding="utf-8"?>
<!-- Generator: Adobe Illustrator 22.0.0, SVG Export Plug-In . SVG Version: 6.00 Build 0)  -->
<svg version="1.0" id="Слой_1" xmlns="http://www.w3.org/2000/svg" xmlns:xlink="http://www.w3.org/1999/xlink" x="0px" y="0px"
	 width="670px" height="501px" viewBox="0 0 670 501" enable-background="new 0 0 670 501" xml:space="preserve">
<g>
	<polygon fill="#9CE8FF" points="9.7,6.1 15,7.3 9.7,8.5 8.2,14 6.8,8.5 1.5,7.3 6.8,6.1 8.2,0.6 	"/>
	<polygon fill="#9FFFD8" points="243.6,39.1 248.8,40.3 243.6,41.5 242.1,47 240.6,41.5 235.4,40.3 240.6,39.1 242.1,33.6 	"/>
	<polygon fill="#9CE8FF" points="426.7,8.1 432,9.3 426.7,10.5 425.2,16 423.8,10.5 418.5,9.3 423.8,8.1 425.2,2.6 	"/>
	<polygon fill="#9FFFD8" points="615.6,12.1 620.8,13.3 615.6,14.5 614.1,20 612.6,14.5 607.4,13.3 612.6,12.1 614.1,6.6 	"/>
	<polygon fill="#9CE8FF" points="41.7,185.1 47,186.3 41.7,187.5 40.2,193 38.8,187.5 33.5,186.3 38.8,185.1 40.2,179.6 	"/>
	<polygon fill="#9FFFD8" points="267.6,171.1 272.8,172.3 267.6,173.5 266.1,179 264.6,173.5 259.4,172.3 264.6,171.1 266.1,165.6 	
		"/>
	<polygon fill="#9CE8FF" points="465.7,195.1 471,196.3 465.7,197.5 464.2,203 462.8,197.5 457.5,196.3 462.8,195.1 464.2,189.6 	
		"/>
	<polygon fill="#9FFFD8" points="664.6,306.1 669.8,307.3 664.6,308.5 663.1,314 661.6,308.5 656.4,307.3 661.6,306.1 663.1,300.6 	
		"/>
	<polygon fill="#9CE8FF" points="126.7,322.1 132,323.3 126.7,324.5 125.2,330 123.8,324.5 118.5,323.3 123.8,322.1 125.2,316.6 	
		"/>
	<polygon fill="#9FFFD8" points="404.6,332.1 409.8,333.3 404.6,334.5 403.1,340 401.6,334.5 396.4,333.3 401.6,332.1 403.1,326.6 	
		"/>
	<polygon fill="#9CE8FF" points="288.7,405.1 294,406.3 288.7,407.5 287.2,413 285.8,407.5 280.5,406.3 285.8,405.1 287.2,399.6 	
		"/>
	<polygon fill="#9FFFD8" points="60.6,490.1 65.8,491.3 60.6,492.5 59.1,498 57.6,492.5 52.4,491.3 57.6,490.1 59.1,484.6 	"/>
	<polygon fill="#9FFFD8" points="597.6,471.1 602.8,472.3 597.6,473.5 596.1,479 594.6,473.5 589.4,472.3 594.6,471.1 596.1,465.6 	
		"/>
</g>
</svg>
